<svg width="512" height="512" viewBox="0 0 512 512" fill="none" xmlns="http://www.w3.org/2000/svg">
<path d="M256 0.5C397.109 0.5 511.5 114.891 511.5 256C511.5 397.109 397.109 511.5 256 511.5C114.891 511.5 0.5 397.109 0.5 256C0.500004 114.891 114.891 0.500004 256 0.5Z" fill="white" fill-opacity="0.7" stroke="#E0E0E0"/>
<path d="M490.667 256.001C490.667 385.603 385.603 490.667 256 490.667C126.397 490.667 21.3335 385.603 21.3335 256.001C21.3335 126.398 126.397 21.334 256 21.334C385.603 21.334 490.667 126.398 490.667 256.001Z" fill="#F8F8F8"/>
<path d="M406.469 175.287L110.865 345.954L105.532 336.716L401.135 166.05L406.469 175.287Z" fill="white"/>
</svg>
